<?xml version="1.0" standalone="no"?>
<!DOCTYPE svg PUBLIC "-//W3C//DTD SVG 20010904//EN"
 "http://www.w3.org/TR/2001/REC-SVG-20010904/DTD/svg10.dtd">
<svg version="1.0" xmlns="http://www.w3.org/2000/svg"
 width="500.000000pt" height="500.000000pt" viewBox="0 0 500.000000 500.000000"
 preserveAspectRatio="xMidYMid meet">

<g transform="translate(0.000000,500.000000) scale(0.100000,-0.100000)"
fill="#000000" stroke="none">
<path d="M1395 3900 l-250 -250 603 0 602 0 100 100 99 100 63 0 63 0 -105
-105 -105 -106 77 2 c52 1 75 5 72 13 -2 6 27 40 66 74 l70 63 0 70 0 70 -570
-3 c-314 -2 -570 -1 -570 2 0 3 21 24 47 45 l48 40 520 0 520 0 3 68 3 67
-553 0 -553 0 -250 -250z"/>
<path d="M2890 4080 l0 -70 196 0 196 0 29 -29 29 -29 0 -635 c0 -601 1 -635
18 -650 10 -10 33 -17 51 -17 32 0 32 -1 29 -42 -3 -40 -5 -43 -33 -46 -50 -5
-107 20 -132 57 -21 30 -23 46 -23 147 l0 114 -185 0 -184 0 -3 -472 -3 -473
-34 -73 c-41 -86 -88 -132 -179 -175 -176 -82 -402 -20 -508 141 -75 112 -79
133 -82 455 l-3 287 -80 0 -79 0 0 -32 c0 -18 -3 -50 -7 -71 -5 -31 -10 -38
-24 -34 -11 3 -16 0 -12 -8 5 -15 -14 -15 -36 -1 -10 6 -12 5 -7 -2 4 -7 3
-12 -2 -12 -7 0 -19 69 -24 148 -1 7 -17 12 -45 12 l-43 0 0 -276 c0 -246 2
-284 21 -356 39 -156 99 -260 211 -370 155 -151 297 -213 513 -225 l110 -6 -4
-45 -3 -45 -100 7 c-131 8 -223 30 -332 78 -105 46 -155 79 -243 161 -109 103
-201 260 -244 422 -20 71 -23 113 -27 368 l-4 287 -59 0 -59 0 0 -34 c0 -59
-15 -84 -52 -88 l-33 -3 -3 -67 -3 -68 -49 0 -50 0 0 130 0 130 -75 0 -75 0 0
-324 c0 -357 8 -431 61 -591 61 -183 160 -338 308 -485 202 -201 427 -317 733
-381 137 -28 387 -30 533 -5 306 55 527 164 725 358 108 105 187 213 253 344
111 223 117 272 117 982 l0 573 -77 -3 -78 -3 -3 -482 -2 -481 -28 -10 c-15
-5 -35 -13 -44 -17 -17 -7 -18 21 -18 498 0 371 3 513 12 532 19 41 57 55 153
55 l85 0 0 94 0 94 -89 4 c-137 6 -161 30 -161 164 l0 74 45 0 44 0 3 -67 3
-68 78 -3 77 -3 0 366 0 365 -495 0 -495 0 0 -70z m879 -44 c36 -36 37 -103 2
-140 -14 -14 -30 -26 -38 -26 -10 0 -13 -25 -13 -110 l0 -110 -45 0 -45 0 0
117 c0 92 -3 120 -16 134 -9 10 -18 36 -21 58 -5 37 -2 44 31 77 33 33 40 36
78 31 26 -3 51 -15 67 -31z m-249 -486 l0 -470 -22 -14 c-13 -8 -33 -17 -45
-21 l-23 -6 0 484 c0 266 3 487 7 490 3 4 24 7 45 7 l38 0 0 -470z m-370 -787
c0 -10 -11 -25 -23 -34 -21 -16 -24 -15 -46 2 -13 11 -20 19 -16 19 4 0 2 7
-5 15 -11 13 -6 15 39 15 42 0 51 -3 51 -17z m-1410 -213 c0 -5 -4 -10 -10
-10 -5 0 -10 5 -10 10 0 6 5 10 10 10 6 0 10 -4 10 -10z m1410 -185 c90 -47
91 -193 1 -240 -27 -14 -30 -20 -33 -72 -3 -57 -3 -58 -33 -58 -29 0 -30 1
-33 57 -3 51 -6 58 -37 79 -63 43 -83 115 -50 180 32 61 121 87 185 54z
m-1760 -312 c0 -107 24 -240 61 -338 90 -237 292 -458 512 -560 l74 -34 -10
-41 c-6 -22 -15 -40 -19 -40 -16 0 -174 83 -238 125 -135 90 -292 276 -370
440 -51 107 -88 263 -96 403 l-7 112 46 0 47 0 0 -67z m520 14 c0 -103 47
-237 117 -330 24 -31 43 -60 43 -63 0 -3 -14 3 -32 14 l-31 20 -17 -21 c-17
-20 -17 -20 -54 29 -76 103 -126 241 -126 348 l0 56 50 0 50 0 0 -53z m-420
-90 c0 -32 -1 -32 -40 -29 -37 4 -40 7 -40 33 0 27 3 29 40 29 39 0 40 -1 40
-33z m1976 -16 c32 -20 64 -74 64 -111 0 -38 -31 -89 -67 -111 -106 -66 -241
53 -187 166 22 47 67 75 119 75 22 0 54 -9 71 -19z m237 -118 c-13 -2 -35 -2
-50 0 -16 2 -5 4 22 4 28 0 40 -2 28 -4z m-2114 -213 c11 -24 11 -24 -3 -6 -9
11 -16 24 -16 30 0 12 5 7 19 -24z m1754 -35 c25 1 28 -2 22 -25 -20 -86 -112
-219 -207 -296 -134 -111 -332 -187 -520 -201 l-88 -6 0 26 c0 22 -7 28 -42
39 -42 12 -40 12 72 19 228 13 417 90 568 232 57 54 81 87 127 176 15 29 31
49 34 44 3 -5 19 -8 34 -8z m-1678 -70 c26 -33 71 -85 99 -115 l51 -55 -49 45
c-45 42 -142 156 -161 190 -11 20 1 7 60 -65z m1032 -541 c-3 -3 -12 -4 -19
-1 -8 3 -5 6 6 6 11 1 17 -2 13 -5z"/>
<path d="M3098 2753 c7 -3 16 -2 19 1 4 3 -2 6 -13 5 -11 0 -14 -3 -6 -6z"/>
<path d="M3095 2730 c3 -5 8 -10 11 -10 2 0 4 5 4 10 0 6 -5 10 -11 10 -5 0
-7 -4 -4 -10z"/>
<path d="M3050 2292 c-23 -19 -31 -75 -13 -93 36 -35 106 -6 106 45 0 51 -55
79 -93 48z"/>
<path d="M3357 1892 c-10 -10 -17 -28 -17 -40 0 -27 33 -62 58 -62 26 0 52 31
52 63 0 51 -59 76 -93 39z"/>
<path d="M2890 3890 l0 -40 125 0 126 0 -3 -37 c-1 -21 -7 -41 -12 -45 -18
-12 -53 -9 -65 5 -7 10 -40 14 -108 15 l-97 2 -60 -65 c-41 -43 -70 -65 -88
-68 -15 -1 -31 -6 -35 -11 -4 -4 -3 -7 2 -6 6 1 54 2 108 1 l97 -1 0 -330 0
-330 185 0 185 0 0 463 c0 347 -3 466 -12 475 -8 8 -63 12 -180 12 l-168 0 0
-40z m259 -598 c14 -10 33 -35 44 -56 17 -32 18 -43 9 -75 -7 -20 -25 -49 -41
-65 -77 -74 -211 -19 -211 88 0 107 116 170 199 108z"/>
<path d="M3036 3224 c-19 -18 -19 -24 -6 -58 17 -47 100 -27 100 24 0 26 -27
50 -55 50 -13 0 -31 -7 -39 -16z"/>
<path d="M2580 3328 c0 -20 1 -21 20 -3 11 10 20 20 20 22 0 1 -9 3 -20 3 -14
0 -20 -7 -20 -22z"/>
</g>
</svg>
