<?xml version="1.0" standalone="no"?>
<!DOCTYPE svg PUBLIC "-//W3C//DTD SVG 20010904//EN"
 "http://www.w3.org/TR/2001/REC-SVG-20010904/DTD/svg10.dtd">
<svg version="1.0" xmlns="http://www.w3.org/2000/svg"
 width="469.000000pt" height="449.000000pt" viewBox="0 0 469.000000 449.000000"
 preserveAspectRatio="xMidYMid meet">

<g transform="translate(0.000000,449.000000) scale(0.100000,-0.100000)"
fill="#000000" stroke="none">
<path d="M2295 3889 c-146 -18 -250 -73 -381 -204 -83 -82 -108 -115 -142
-182 -57 -115 -76 -208 -69 -342 5 -101 36 -231 56 -231 5 0 11 27 14 59 16
148 128 293 372 481 84 65 72 48 -62 -86 -104 -104 -137 -153 -62 -92 23 18
89 71 148 117 l106 84 -160 -164 c-177 -181 -229 -255 -249 -350 -11 -57 -5
-184 11 -199 2 -3 14 9 26 25 12 17 45 57 74 90 29 33 145 169 257 302 268
316 340 424 365 541 18 87 16 98 -26 115 -86 33 -190 47 -278 36z"/>
<path d="M2696 3714 c-7 -55 -34 -118 -76 -181 l-31 -45 128 -132 c169 -175
223 -269 223 -388 0 -58 17 -46 41 30 33 103 37 255 10 363 -35 139 -71 202
-178 307 -51 50 -97 92 -102 92 -4 0 -11 -21 -15 -46z"/>
<path d="M2476 3335 c-31 -41 -56 -78 -56 -82 0 -4 46 -57 101 -118 56 -60
149 -165 207 -232 124 -143 127 -143 127 7 -1 119 -21 167 -125 295 -75 93
-179 205 -191 205 -4 0 -32 -34 -63 -75z"/>
<path d="M2014 2781 c-68 -84 -66 -79 -50 -164 27 -142 107 -247 235 -310 59
-29 74 -32 156 -32 82 0 97 3 157 33 133 65 203 161 233 314 l14 73 -42 55
-42 55 -3 -50 c-3 -74 -9 -91 -43 -130 -40 -46 -70 -45 -121 1 -51 45 -95 64
-153 64 -59 0 -101 -18 -147 -64 -55 -53 -97 -47 -139 21 -14 22 -25 59 -28
98 l-6 61 -21 -25z"/>
<path d="M2717 2344 c-39 -173 -149 -745 -145 -749 8 -9 100 35 171 83 65 42
132 113 162 172 12 24 12 35 -6 96 -41 140 -140 432 -153 449 -12 16 -15 10
-29 -51z"/>
<path d="M1950 2368 c-33 -93 -114 -352 -131 -417 -19 -74 -19 -75 2 -117 11
-24 45 -68 75 -97 56 -57 247 -184 252 -168 5 16 -120 639 -154 769 -9 34 -20
62 -25 62 -4 0 -12 -15 -19 -32z"/>
<path d="M1753 2326 c-119 -56 -257 -176 -301 -261 -65 -129 -84 -309 -43
-426 54 -157 112 -233 266 -349 103 -76 260 -180 274 -180 4 0 31 31 60 69 28
38 73 88 99 111 l47 42 -25 17 c-107 70 -380 266 -406 291 -63 59 -97 172 -80
264 4 20 22 56 41 80 25 33 37 63 45 109 9 52 44 149 87 245 8 17 -5 15 -64
-12z"/>
<path d="M2900 2336 c0 -2 13 -32 29 -67 31 -69 51 -149 51 -205 0 -24 7 -42
24 -57 76 -71 89 -178 36 -285 -50 -99 -118 -148 -451 -322 -92 -48 -201 -111
-243 -140 -130 -90 -213 -204 -247 -341 -39 -151 -16 -278 77 -427 49 -78 157
-205 179 -210 7 -2 41 30 75 70 155 180 205 300 201 486 l-1 42 -35 -14 c-48
-20 -110 -64 -175 -125 -30 -28 -57 -51 -61 -51 -10 0 -19 39 -19 84 0 56 31
114 96 178 46 46 95 76 269 167 411 213 484 271 570 452 111 233 41 498 -174
663 -82 63 -201 124 -201 102z"/>
<path d="M2289 2113 c-114 -119 -109 -103 -50 -170 28 -31 51 -63 51 -71 0 -8
-11 -75 -24 -151 -42 -236 -42 -216 1 -246 21 -14 43 -25 49 -25 10 0 148 73
162 86 3 2 -31 204 -54 325 -4 21 5 37 46 82 36 40 49 61 43 71 -13 23 -144
166 -151 166 -4 0 -37 -30 -73 -67z"/>
<path d="M2950 1027 c-43 -15 -80 -68 -80 -114 0 -46 40 -83 120 -113 66 -25
76 -47 29 -64 -21 -7 -37 -4 -74 14 l-47 23 -30 -31 -30 -30 47 -27 c121 -71
255 -25 255 88 0 49 -26 75 -100 100 -57 20 -65 26 -68 50 -3 24 0 27 25 27
15 0 41 -7 58 -16 29 -15 31 -14 53 11 28 34 25 44 -20 67 -48 25 -96 30 -138
15z"/>
<path d="M1680 896 c0 -156 -6 -169 -67 -147 -33 12 -37 11 -64 -15 -16 -15
-29 -31 -29 -35 0 -13 86 -49 119 -49 38 0 78 19 106 50 18 20 20 39 23 176
l4 154 -46 0 -46 0 0 -134z"/>
</g>
</svg>
